<?xml version="1.0" encoding="UTF-8"?><svg id="d" xmlns="http://www.w3.org/2000/svg" xmlns:xlink="http://www.w3.org/1999/xlink" viewBox="0 0 500 500"><defs><style>.g{fill:none;}.h{fill:#2f243a;}.i{fill:#f7b267;}.j{fill:#f25c54;}.k{clip-path:url(#e);}.l{clip-path:url(#f);}</style><clipPath id="e"><path class="g" d="M398,269.51c0,78.79-63.87,142.66-142.66,142.66-78.79,0-142.66-63.87-142.66-142.66h285.32Z"/></clipPath><clipPath id="f"><path class="g" d="M261.59,426.81c-95.43-22.31-171.61-92.57-170.15-156.94,1.46-64.37,85.35-121.36,180.78-99.06l-10.63,255.99Z"/></clipPath></defs><circle class="i" cx="248.5" cy="250" r="193.83"/><path class="h" d="M428.14,255.97H71.86v-5.72c0-47.58,18.53-92.32,52.17-125.96,33.65-33.65,78.38-52.17,125.96-52.17s92.32,18.53,125.96,52.17c33.64,33.65,52.17,78.38,52.17,125.96v5.72ZM83.4,244.52h333.2c-1.42-42.38-18.6-82.02-48.73-112.15-31.48-31.48-73.34-48.82-117.87-48.82s-86.39,17.34-117.87,48.82c-30.13,30.13-47.31,69.77-48.73,112.15Z"/><path class="h" d="M422.42,254.44c0,95.23-77.19,172.42-172.42,172.42-95.23,0-172.42-77.19-172.42-172.42h344.83Z"/><g class="k"><polygon class="i" points="286.9 318.11 346.24 407.12 255.34 437.92 255.34 325.28 286.9 318.11"/></g><g class="l"><polygon class="i" points="205.09 280.67 85.31 347.81 60.25 262.58 198.98 263.13 205.09 280.67"/></g><path class="j" d="M331.63,254.44c0,45.08-36.55,81.63-81.63,81.63-45.08,0-81.63-36.55-81.63-81.63h163.26Z"/><rect class="i" x="9.31" y="150.31" width="481.39" height="125.12"/><path class="h" d="M496.42,281.14H3.58v-136.56h492.83v136.56ZM15.03,269.7h469.95v-113.67H15.03v113.67Z"/><path class="h" d="M70.48,228.82c-.52-.45-.97-.92-1.35-1.41s-.57-1.02-.57-1.58c0-1.07.3-1.61.92-1.61.4,0,.85.33,1.34,1.01.49.67,1.04,1.26,1.65,1.76.61.5,1.27.93,1.99,1.29,1.47.74,2.84,1.11,4.09,1.11s2.22-.12,2.89-.37c.68-.25,1.25-.58,1.71-1.01.98-.92,1.47-2.09,1.47-3.52,0-1.32-.42-2.65-1.27-3.99-.71-1.14-1.73-2.5-3.04-4.09l-3.82-4.49c-3.83-4.43-6.09-8.47-6.77-12.14-.24-1.27-.36-2.69-.36-4.26s.23-3.11.7-4.63c.47-1.52,1.17-2.85,2.09-3.99,1.98-2.48,4.68-3.72,8.09-3.72,1.74,0,3.31.39,4.69,1.16,1.39.77,2.33,1.46,2.84,2.06.51.6.76,1.15.76,1.64,0,1.03-.28,1.54-.85,1.54-.33,0-.68-.25-1.05-.74-.37-.49-.79-.92-1.24-1.29-.46-.37-.97-.7-1.55-.99-1.25-.63-2.48-.94-3.69-.94-2.22,0-3.33,1.1-3.33,3.29,0,.92.2,1.77.6,2.55.71,1.36,2.11,3.31,4.19,5.85,2.08,2.54,3.75,4.76,5.01,6.66,1.26,1.9,2.22,3.61,2.87,5.13,1.04,2.39,1.56,4.88,1.56,7.46s-.3,4.77-.91,6.57c-.6,1.8-1.45,3.35-2.54,4.64-2.29,2.73-5.14,4.09-8.54,4.09s-6.27-1.02-8.6-3.05Z"/><path class="h" d="M112.19,231.87c-2.07,0-4.08-.7-6.01-2.11v12.2h-9.19v-46.53h9.19v1.84c1.95-1.63,3.95-2.45,5.99-2.45s3.84.46,5.41,1.37c1.56.92,2.91,2.18,4.02,3.79,2.31,3.4,3.46,7.74,3.46,13.04s-1.14,9.78-3.42,13.31c-2.35,3.69-5.51,5.53-9.45,5.53ZM112.12,197.27c-2.21,0-4.19.92-5.95,2.75v26.75c2.01,1.74,4.2,2.62,6.57,2.62h.58c.18,0,.35-.02.51-.07v-31.85c-.57-.13-1.14-.2-1.72-.2Z"/><path class="h" d="M135.48,189.56c-1.54,0-2.73-.51-3.6-1.54-.86-1.03-1.3-2.38-1.3-4.06,0-1.41.48-2.62,1.43-3.62,1.01-1.07,2.09-1.61,3.22-1.61s2.01.17,2.63.5c.62.33,1.14.77,1.58,1.31.86,1.1,1.3,2.37,1.3,3.82s-.49,2.68-1.47,3.69c-.98,1.01-2.24,1.51-3.78,1.51ZM130.78,195.42h9.61v35.81h-9.61v-35.81Z"/><path class="h" d="M164.24,199.08c-.37-.36-.78-.54-1.21-.54s-.88.15-1.34.45c-.46.3-.95.72-1.45,1.26-1.06,1.14-2.03,2.66-2.93,4.56v26.42h-9.61v-35.81h9.61v5.73c2.55-4.22,5.43-6.34,8.65-6.34,5.26,0,7.89,3.82,7.89,11.47v24.94h-9.61v-32.15Z"/><path class="h" d="M217.08,223.28c.61,0,.92.51.92,1.54,0,.85-.43,1.7-1.3,2.55-1.61,1.59-2.96,2.63-4.07,3.12-2.07.92-4.25,1.37-6.53,1.37s-4.47-.61-6.58-1.83c-2.11-1.22-3.91-2.92-5.4-5.11-3.11-4.6-4.67-10.55-4.67-17.84,0-3.51.44-6.73,1.32-9.67.88-2.94,2.09-5.46,3.64-7.56,3.28-4.45,7.4-6.67,12.36-6.67,2.79,0,5.24.72,7.35,2.15,2.25,1.5,3.38,2.77,3.38,3.82,0,.43-.09.79-.28,1.11-.19.31-.4.47-.64.47-.48,0-.91-.32-1.3-.96-.39-.64-.91-1.21-1.58-1.73s-1.39-.96-2.18-1.34c-1.61-.74-3.07-1.11-4.39-1.11s-2.41.13-3.27.4v42.98c1.04.27,1.97.4,2.77.4s1.62-.08,2.46-.23c.83-.16,1.65-.41,2.46-.77,1.8-.8,3.16-1.99,4.07-3.55.33-.58.59-.98.78-1.21.19-.22.42-.34.67-.34Z"/><path class="h" d="M228.14,189.56c-1.54,0-2.73-.51-3.6-1.54-.86-1.03-1.3-2.38-1.3-4.06,0-1.41.48-2.62,1.43-3.62,1.01-1.07,2.09-1.61,3.22-1.61s2.01.17,2.63.5c.62.33,1.14.77,1.58,1.31.86,1.1,1.3,2.37,1.3,3.82s-.49,2.68-1.47,3.69c-.98,1.01-2.24,1.51-3.78,1.51ZM223.45,195.42h9.61v35.81h-9.61v-35.81Z"/><path class="h" d="M249.55,231.87c-5.84,0-8.76-4-8.76-12l-.02-21.99-2.57.17c-.8,0-1.21-.46-1.21-1.37s.43-1.38,1.3-1.38l2.15.13h.33v-5.2l9.59-6.44v11.63h3l2.12-.13c.88,0,1.32.47,1.32,1.41,0,.42-.12.75-.37.99-.25.23-.53.35-.84.35l-2.77-.17h-2.46v31.51c1.74-.04,3.2-.79,4.36-2.25.55-.63.94-1.43,1.17-2.41.23-.98.44-1.61.63-1.89.19-.28.41-.42.66-.42s.47.15.65.45.27.66.27,1.07-.08.87-.22,1.37c-.15.5-.37,1.03-.67,1.59-.67,1.25-1.45,2.25-2.32,2.98-1.59,1.32-3.37,1.98-5.32,1.98Z"/><path class="h" d="M266.05,239.14c.91-.42,1.54-.97,1.9-1.64.51-.89,1.12-2.5,1.83-4.83l.51-1.78-12.18-35.47h10.17l6.35,20.25,3.67-12.84c.67-2.35,1.11-4.13,1.32-5.36.21-1.23.41-1.98.61-2.25s.45-.4.74-.4.52.13.68.4c.16.27.25.54.25.8s-.02.55-.06.85-.11.7-.22,1.21c-.11.5-.27,1.13-.48,1.89l-9.28,32.25c-1.1,3.89-2.16,6.63-3.17,8.21-.86,1.41-1.74,2.11-2.63,2.11s-1.33-.46-1.33-1.39.44-1.6,1.32-2.03Z"/><path class="h" d="M292.6,231.16c-.15-.33-.21-.7-.18-1.11.08-.69.22-1.33.42-1.91.21-.58.36-1.02.46-1.31.1-.29.2-.61.3-.97l.85-2.95,9.19-41.27,9.88,28.63,9.59-28.63,11.47,49.58h-12l-5.54-25.61-8.58,26.82-9.03-24.14-3.13,14.65c-.49,1.63-.84,3.02-1.05,4.16-.21,1.14-.38,2.02-.51,2.65-.3,1.41-.79,2.07-1.48,1.98-.28-.04-.5-.23-.65-.57Z"/><path class="h" d="M346.78,231.87c-5.23,0-7.84-3.83-7.84-11.5v-24.94h9.57v32.82c.15.11.34.17.56.17h.74c1.19,0,2.61-1.21,4.25-3.62.49-.74.95-1.54,1.39-2.41v-26.95h9.61v35.81h-9.61v-5.16c-2.43,3.87-5.31,5.8-8.65,5.8Z"/><path class="h" d="M370.6,226.74c0-.33.08-.64.24-.92.16-.28.36-.42.61-.42s.46.11.63.34l.56.77c1.55,2.03,3.72,3.05,6.5,3.05,1.88,0,3.08-.58,3.62-1.74.15-.31.22-.63.22-.96s-.04-.64-.12-.94c-.08-.3-.26-.67-.53-1.11-.27-.44-.65-.96-1.14-1.56l-1.97-2.38c-3.25-3.8-5.48-6.88-6.68-9.25-1.1-2.17-1.65-4.38-1.65-6.64,0-2.84.87-5.22,2.62-7.14,1.8-2.01,4.13-3.02,7-3.02,2.01,0,3.6.35,4.76,1.04s1.98,1.32,2.46,1.89c.48.57.71,1.09.71,1.56,0,.96-.25,1.44-.76,1.44-.24,0-.46-.13-.66-.39s-.6-.69-1.2-1.31-1.39-1.1-2.37-1.46c-.98-.36-1.9-.54-2.75-.54s-1.45.2-1.8.6c-.35.4-.53.8-.53,1.19s.05.76.16,1.11.3.75.58,1.22c.66,1.16,1.71,2.54,3.15,4.12,1.45,1.59,2.67,3.04,3.67,4.36,1,1.32,1.78,2.54,2.35,3.65,1.03,2.01,1.54,4.05,1.54,6.1s-.25,3.82-.76,5.28c-.51,1.46-1.23,2.72-2.17,3.77-1.98,2.26-4.63,3.39-7.93,3.39-2.65,0-4.87-.76-6.64-2.28-1.15-.96-1.72-1.91-1.72-2.85Z"/><path class="h" d="M399.91,189.56c-1.54,0-2.73-.51-3.6-1.54-.86-1.03-1.3-2.38-1.3-4.06,0-1.41.48-2.62,1.43-3.62,1.01-1.07,2.09-1.61,3.22-1.61s2.01.17,2.63.5c.62.33,1.14.77,1.58,1.31.86,1.1,1.3,2.37,1.3,3.82s-.49,2.68-1.47,3.69c-.98,1.01-2.24,1.51-3.78,1.51ZM395.21,195.42h9.61v35.81h-9.61v-35.81Z"/><path class="h" d="M421.07,229.08c.7.2,1.4.3,2.11.3s1.39-.08,2.06-.25c.66-.17,1.29-.41,1.89-.72,1.27-.67,2.29-1.52,3.06-2.55.55-.71.95-1.07,1.21-1.07.57,0,.85.38.85,1.14s-.46,1.67-1.39,2.72c-2.15,2.15-4.72,3.22-7.73,3.22-3.92,0-7.08-1.77-9.5-5.3-2.37-3.49-3.55-8.01-3.55-13.58,0-5.27,1.26-9.63,3.78-13.07,2.5-3.4,5.65-5.1,9.43-5.1,2.16,0,4.24.67,6.24,2.01,1.52.98,2.28,2,2.28,3.05,0,.45-.09.79-.26,1.02-.17.23-.36.35-.57.35-.31,0-.71-.26-1.21-.77-.97-1.39-2.41-2.36-4.31-2.92-.69-.2-1.44-.3-2.26-.3s-1.53.09-2.12.27v31.55Z"/><path class="h" d="M202.56,130.55c.46,0,.68.27.68.8,0,.24-.1.46-.29.64-.2.19-.54.28-1.02.28h-11.36v-28.46h10.57l1.1-.06c.67,0,1.01.3,1.01.89,0,.23-.06.44-.17.63-.11.19-.24.29-.38.29-.23,0-.48-.04-.74-.12-.38-.12-.91-.18-1.58-.18h-2.96v6.14h2.44l1.65-.1c.2,0,.36.07.5.21.14.14.21.34.21.59,0,.56-.25.84-.75.84l-.58-.02c-.29-.04-.54-.06-.74-.06h-2.74v17.94h2.96c.66,0,1.13-.04,1.41-.12.33-.09.59-.14.78-.14Z"/><path class="h" d="M206.84,130.83c-.31-.27-.58-.55-.81-.84-.23-.29-.34-.61-.34-.95,0-.64.18-.97.55-.97.24,0,.51.2.8.6.29.4.62.75.99,1.06.37.3.76.56,1.19.77.88.44,1.7.66,2.45.66s1.33-.07,1.74-.22c.41-.15.75-.35,1.03-.6.59-.55.88-1.25.88-2.11,0-.79-.25-1.59-.76-2.39-.43-.68-1.04-1.5-1.82-2.45l-2.29-2.7c-2.3-2.66-3.65-5.08-4.06-7.28-.14-.76-.21-1.62-.21-2.55s.14-1.86.42-2.78c.28-.91.7-1.71,1.25-2.39,1.19-1.49,2.81-2.23,4.85-2.23,1.05,0,1.98.23,2.82.69.83.46,1.4.88,1.7,1.24.3.36.46.69.46.99,0,.62-.17.93-.51.93-.2,0-.41-.15-.63-.44-.22-.29-.47-.55-.74-.77-.27-.22-.58-.42-.93-.59-.75-.38-1.49-.56-2.21-.56-1.33,0-2,.66-2,1.97,0,.55.12,1.06.36,1.53.43.82,1.27,1.99,2.51,3.51s2.25,2.85,3,3.99c.76,1.14,1.33,2.17,1.72,3.08.62,1.44.94,2.93.94,4.48s-.18,2.86-.54,3.94c-.36,1.08-.87,2.01-1.52,2.79-1.38,1.64-3.08,2.45-5.12,2.45s-3.76-.61-5.16-1.83Z"/><path class="h" d="M236.57,104.33c0,.62-.43.93-1.3.93h-3.11v27.02h-6.87v-27.02h-2.01c-.69,0-1.16.05-1.42.14-.34.11-.58.16-.74.16-.46,0-.68-.27-.68-.8,0-.63.44-.95,1.33-.95h11.96c.62,0,1.07-.04,1.37-.12.36-.09.63-.14.8-.14.45,0,.67.26.67.78Z"/><path class="h" d="M258.05,131.27c0,.67-.45,1.01-1.35,1.01h-13.04c.22-2.68,1.62-6.74,4.18-12.17,2.96-6.06,4.55-9.37,4.77-9.92.22-.55.36-.95.44-1.21.12-.4.19-.81.19-1.23s-.06-.81-.18-1.18c-.12-.37-.3-.68-.54-.94-.53-.56-1.28-.85-2.25-.85-.92,0-1.72.21-2.39.64-1.14.74-1.86,1.51-2.19,2.31-.24.56-.52.85-.83.85s-.47-.29-.47-.87c0-.71.43-1.49,1.29-2.33,1.36-1.3,2.97-1.95,4.84-1.95,2.28,0,4.11.73,5.48,2.19,1.31,1.39,1.97,3.18,1.97,5.35,0,1.25-.11,2.28-.34,3.11-.23.82-.45,1.53-.66,2.12-.21.59-.47,1.25-.78,1.97l-2.58,5.77c-1.23,2.72-2.1,5.01-2.59,6.86h3.93c.5,0,.97-.06,1.39-.18.53-.15.89-.22,1.09-.22s.35.09.46.27c.1.18.15.37.15.57Z"/><path class="h" d="M268.87,132.66c-1.23,0-2.32-.32-3.28-.95-.96-.63-1.78-1.58-2.45-2.84-1.39-2.6-2.08-6.4-2.08-11.41,0-4.45.7-7.9,2.09-10.34,1.39-2.45,3.37-3.68,5.94-3.68s4.37,1.24,5.71,3.72c1.31,2.45,1.97,5.98,1.97,10.58,0,4.85-.71,8.58-2.12,11.16-1.38,2.49-3.31,3.74-5.79,3.74ZM268.97,131.27c3.17,0,5.26-2.44,6.25-7.32.35-1.7.52-3.75.52-6.14s-.17-4.41-.5-6.06c-.33-1.65-.79-2.99-1.38-4.02-1.14-1.98-2.73-2.98-4.79-2.98h-.15v26.51h.04Z"/><path class="h" d="M292.86,131.27c0,.67-.45,1.01-1.35,1.01h-13.04c.22-2.68,1.62-6.74,4.18-12.17,2.96-6.06,4.55-9.37,4.77-9.92.22-.55.36-.95.44-1.21.12-.4.19-.81.19-1.23s-.06-.81-.18-1.18c-.12-.37-.3-.68-.54-.94-.53-.56-1.28-.85-2.25-.85-.92,0-1.72.21-2.39.64-1.14.74-1.86,1.51-2.19,2.31-.24.56-.52.85-.83.85s-.47-.29-.47-.87c0-.71.43-1.49,1.29-2.33,1.36-1.3,2.97-1.95,4.84-1.95,2.28,0,4.11.73,5.48,2.19,1.31,1.39,1.97,3.18,1.97,5.35,0,1.25-.11,2.28-.34,3.11-.23.82-.45,1.53-.66,2.12-.21.59-.47,1.25-.78,1.97l-2.58,5.77c-1.23,2.72-2.1,5.01-2.59,6.86h3.93c.5,0,.97-.06,1.39-.18.53-.15.89-.22,1.09-.22s.35.09.46.27c.1.18.15.37.15.57Z"/><path class="h" d="M298.33,113.75c1.4-.93,2.77-1.39,4.14-1.39s2.52.28,3.47.83c.95.56,1.75,1.3,2.41,2.24,1.31,1.9,1.97,4.24,1.97,7.02s-.71,5.24-2.13,7.16c-1.49,2.02-3.46,3.04-5.9,3.04-1.72,0-3.39-.77-5.03-2.31-.58-.58-1-1.23-1.25-1.97-.07-.2-.11-.38-.11-.54,0-.66.16-.99.48-.99s.58.27.8.82c.22.55.49,1.03.81,1.45.32.42.71.78,1.15,1.11.97.68,2.05,1.03,3.26,1.03h.39c.12,0,.25-.01.36-.04v-17.32c-.29-.04-.69-.06-1.17-.06s-1.08.14-1.77.42c-.69.28-1.22.57-1.59.86-.48.39-.81.58-.98.58s-.3-.09-.38-.26c-.08-.17-.12-.35-.1-.54l.71-9.17c.02-.11.03-.21.03-.32v-.34c0-.7.04-1.1.11-1.21.11-.15.29-.22.55-.22l1.97.2h2.64c2.2,0,3.76-.13,4.69-.4.07-.01.17-.02.31-.02s.25.09.36.28c.11.19.16.38.16.58,0,.63-.5.95-1.5.97-.26.01-.5.02-.74.02h-7.47l-.66,8.49Z"/></svg>