<?xml version="1.0" encoding="UTF-8"?><svg id="c" xmlns="http://www.w3.org/2000/svg" xmlns:xlink="http://www.w3.org/1999/xlink" viewBox="0 0 500 500"><defs><style>.g{fill:none;}.h{fill:#2f243a;}.i{fill:#f7b267;}.j{fill:#f25c54;}.k{clip-path:url(#e);}.l{clip-path:url(#d);}</style><clipPath id="d"><path class="g" d="M450.15,277.45c0,106.93-86.68,193.62-193.62,193.62-106.93,0-193.62-86.68-193.62-193.62h387.23Z"/></clipPath><clipPath id="e"><path class="g" d="M270.33,490.94c-129.51-30.28-232.9-125.63-230.92-212.99,1.98-87.36,115.84-164.71,245.35-134.43l-14.43,347.43Z"/></clipPath></defs><path class="h" d="M483.29,257c0,129.24-104.76,234-234,234-129.24,0-234-104.76-234-234h467.99Z"/><g class="l"><polygon class="i" points="299.37 343.42 379.9 464.21 256.54 506.02 256.54 353.15 299.37 343.42"/></g><g class="k"><polygon class="i" points="193.64 292.61 31.09 383.72 -2.93 268.05 185.36 268.79 193.64 292.61"/></g><path class="j" d="M360.08,257c0,61.19-49.6,110.79-110.79,110.79-61.19,0-110.79-49.6-110.79-110.79h221.57Z"/><path class="h" d="M53.57,232.28c-2.18-1.87-4.06-3.83-5.64-5.88-1.59-2.05-2.38-4.25-2.38-6.58,0-4.48,1.27-6.72,3.83-6.72,1.68,0,3.55,1.4,5.6,4.2s4.35,5.25,6.9,7.35c2.55,2.1,5.32,3.9,8.3,5.39,6.16,3.08,11.85,4.62,17.08,4.62s9.25-.51,12.08-1.54c2.83-1.03,5.21-2.43,7.14-4.2,4.11-3.82,6.16-8.72,6.16-14.7,0-5.5-1.77-11.06-5.32-16.66-2.99-4.76-7.22-10.45-12.69-17.08l-15.96-18.76c-15.99-18.48-25.41-35.36-28.27-50.67-1-5.32-1.49-11.24-1.49-17.78s.98-12.97,2.94-19.32c1.96-6.34,4.87-11.9,8.72-16.66,8.27-10.36,19.53-15.54,33.78-15.54,7.28,0,13.81,1.61,19.6,4.83s9.73,6.09,11.85,8.61c2.11,2.52,3.17,4.81,3.17,6.86,0,4.29-1.18,6.44-3.55,6.44-1.37,0-2.83-1.03-4.39-3.08-1.56-2.05-3.28-3.85-5.18-5.39s-4.06-2.92-6.48-4.13c-5.23-2.61-10.36-3.92-15.4-3.92-9.27,0-13.9,4.57-13.9,13.72,0,3.83.84,7.37,2.52,10.64,2.99,5.69,8.82,13.83,17.5,24.42,8.68,10.59,15.64,19.85,20.9,27.78,5.26,7.93,9.25,15.07,11.99,21.42,4.35,9.99,6.53,20.37,6.53,31.14s-1.26,19.92-3.78,27.43c-2.52,7.51-6.05,13.97-10.59,19.39-9.58,11.39-21.46,17.08-35.65,17.08s-26.16-4.24-35.92-12.74Z"/><path class="h" d="M271.64,209.18c2.55,0,3.83,2.15,3.83,6.44,0,3.55-1.8,7.09-5.41,10.64-6.72,6.63-12.38,10.97-16.98,13.02-8.65,3.82-17.73,5.74-27.25,5.74s-18.68-2.54-27.48-7.63c-8.8-5.08-16.31-12.2-22.53-21.35-13-19.22-19.5-44.04-19.5-74.46,0-14.65,1.83-28.11,5.51-40.38,3.67-12.27,8.74-22.79,15.21-31.56,13.68-18.57,30.89-27.85,51.6-27.85,11.63,0,21.87,2.99,30.7,8.96,9.39,6.25,14.09,11.57,14.09,15.96,0,1.77-.39,3.31-1.17,4.62-.78,1.31-1.67,1.96-2.66,1.96-1.99,0-3.79-1.33-5.41-3.99-1.62-2.66-3.81-5.06-6.58-7.21-2.77-2.15-5.8-4.01-9.1-5.6-6.72-3.08-12.83-4.62-18.33-4.62s-10.06.56-13.67,1.68v179.44c4.35,1.12,8.21,1.68,11.57,1.68s6.78-.33,10.26-.98c3.48-.65,6.91-1.73,10.26-3.22,7.53-3.36,13.19-8.3,16.98-14.84,1.37-2.43,2.46-4.1,3.27-5.04.81-.93,1.74-1.4,2.8-1.4Z"/><path class="h" d="M284.15,242.07c-.62-1.4-.87-2.94-.75-4.62.31-2.89.9-5.55,1.77-7.98.87-2.43,1.51-4.25,1.91-5.46.4-1.21.82-2.57,1.26-4.06l3.55-12.32,38.35-172.3,41.24,119.53,40.03-119.53,47.87,207.01h-50.11l-23.14-106.93-35.83,111.97-37.7-100.78-13.06,61.17c-2.05,6.81-3.52,12.6-4.39,17.36-.87,4.76-1.59,8.45-2.15,11.06-1.25,5.88-3.3,8.63-6.16,8.26-1.18-.19-2.08-.98-2.71-2.38Z"/></svg>